<mxfile host="app.diagrams.net" modified="2022-02-21T04:38:09.181Z" agent="5.0 (Windows NT 10.0; Win64; x64) AppleWebKit/537.36 (KHTML, like Gecko) Chrome/98.0.4758.102 Safari/537.36 Edg/98.0.1108.56" etag="2zeSdjzNg0X08gDxlImB" version="16.6.1" type="gitlab">
  <diagram id="R2lEEEUBdFMjLlhIrx00" name="Page-1">
    <mxGraphModel dx="1688" dy="963" grid="1" gridSize="10" guides="1" tooltips="1" connect="1" arrows="1" fold="1" page="1" pageScale="1" pageWidth="850" pageHeight="1100" math="0" shadow="0" extFonts="Permanent Marker^https://fonts.googleapis.com/css?family=Permanent+Marker">
      <root>
        <mxCell id="0" />
        <mxCell id="1" parent="0" />
        <mxCell id="wpAan-Qs_-0TVakLURKv-1" value="Usuário" style="whiteSpace=wrap;html=1;align=center;" parent="1" vertex="1">
          <mxGeometry x="310" y="290" width="100" height="40" as="geometry" />
        </mxCell>
        <mxCell id="wpAan-Qs_-0TVakLURKv-44" style="edgeStyle=orthogonalEdgeStyle;rounded=0;orthogonalLoop=1;jettySize=auto;html=1;entryX=0.5;entryY=1;entryDx=0;entryDy=0;endArrow=blockThin;endFill=1;" parent="1" source="wpAan-Qs_-0TVakLURKv-2" target="wpAan-Qs_-0TVakLURKv-1" edge="1">
          <mxGeometry relative="1" as="geometry" />
        </mxCell>
        <mxCell id="wpAan-Qs_-0TVakLURKv-2" value="Cliente" style="whiteSpace=wrap;html=1;align=center;" parent="1" vertex="1">
          <mxGeometry x="240" y="370" width="100" height="40" as="geometry" />
        </mxCell>
        <mxCell id="wpAan-Qs_-0TVakLURKv-43" style="edgeStyle=orthogonalEdgeStyle;rounded=0;orthogonalLoop=1;jettySize=auto;html=1;exitX=0.5;exitY=0;exitDx=0;exitDy=0;endArrow=blockThin;endFill=1;" parent="1" source="wpAan-Qs_-0TVakLURKv-3" edge="1">
          <mxGeometry relative="1" as="geometry">
            <mxPoint x="360" y="330" as="targetPoint" />
          </mxGeometry>
        </mxCell>
        <mxCell id="wpAan-Qs_-0TVakLURKv-3" value="Funcionário" style="whiteSpace=wrap;html=1;align=center;" parent="1" vertex="1">
          <mxGeometry x="380" y="370" width="100" height="40" as="geometry" />
        </mxCell>
        <mxCell id="wpAan-Qs_-0TVakLURKv-4" value="Perfil" style="whiteSpace=wrap;html=1;align=center;" parent="1" vertex="1">
          <mxGeometry x="520" y="200" width="100" height="40" as="geometry" />
        </mxCell>
        <mxCell id="wpAan-Qs_-0TVakLURKv-5" value="Cidade" style="whiteSpace=wrap;html=1;align=center;" parent="1" vertex="1">
          <mxGeometry x="310" y="110" width="100" height="40" as="geometry" />
        </mxCell>
        <mxCell id="wpAan-Qs_-0TVakLURKv-6" value="Estado" style="whiteSpace=wrap;html=1;align=center;" parent="1" vertex="1">
          <mxGeometry x="630" y="110" width="100" height="40" as="geometry" />
        </mxCell>
        <mxCell id="wpAan-Qs_-0TVakLURKv-7" value="Loja" style="whiteSpace=wrap;html=1;align=center;" parent="1" vertex="1">
          <mxGeometry x="240" y="1020" width="100" height="40" as="geometry" />
        </mxCell>
        <mxCell id="wpAan-Qs_-0TVakLURKv-8" value="Produto" style="whiteSpace=wrap;html=1;align=center;" parent="1" vertex="1">
          <mxGeometry x="530" y="840" width="100" height="40" as="geometry" />
        </mxCell>
        <mxCell id="wpAan-Qs_-0TVakLURKv-9" value="Categoria" style="whiteSpace=wrap;html=1;align=center;" parent="1" vertex="1">
          <mxGeometry x="390" y="930" width="100" height="40" as="geometry" />
        </mxCell>
        <mxCell id="wpAan-Qs_-0TVakLURKv-12" value="Cadastra" style="shape=rhombus;perimeter=rhombusPerimeter;whiteSpace=wrap;html=1;align=center;" parent="1" vertex="1">
          <mxGeometry x="510" y="360" width="120" height="60" as="geometry" />
        </mxCell>
        <mxCell id="wpAan-Qs_-0TVakLURKv-13" value="" style="endArrow=none;html=1;rounded=0;exitX=0.987;exitY=0.883;exitDx=0;exitDy=0;entryX=0;entryY=1;entryDx=0;entryDy=0;exitPerimeter=0;" parent="1" source="wpAan-Qs_-0TVakLURKv-3" target="wpAan-Qs_-0TVakLURKv-12" edge="1">
          <mxGeometry relative="1" as="geometry">
            <mxPoint x="500" y="340" as="sourcePoint" />
            <mxPoint x="660" y="340" as="targetPoint" />
          </mxGeometry>
        </mxCell>
        <mxCell id="wpAan-Qs_-0TVakLURKv-14" value="1" style="resizable=0;html=1;align=right;verticalAlign=bottom;" parent="wpAan-Qs_-0TVakLURKv-13" connectable="0" vertex="1">
          <mxGeometry x="1" relative="1" as="geometry">
            <mxPoint x="-5" y="15" as="offset" />
          </mxGeometry>
        </mxCell>
        <mxCell id="wpAan-Qs_-0TVakLURKv-15" value="" style="endArrow=none;html=1;rounded=0;exitX=1.003;exitY=0.182;exitDx=0;exitDy=0;exitPerimeter=0;entryX=0.208;entryY=0.288;entryDx=0;entryDy=0;entryPerimeter=0;" parent="1" source="wpAan-Qs_-0TVakLURKv-3" target="wpAan-Qs_-0TVakLURKv-12" edge="1">
          <mxGeometry relative="1" as="geometry">
            <mxPoint x="490" y="380" as="sourcePoint" />
            <mxPoint x="620" y="370" as="targetPoint" />
          </mxGeometry>
        </mxCell>
        <mxCell id="wpAan-Qs_-0TVakLURKv-16" value="N" style="resizable=0;html=1;align=right;verticalAlign=bottom;" parent="wpAan-Qs_-0TVakLURKv-15" connectable="0" vertex="1">
          <mxGeometry x="1" relative="1" as="geometry">
            <mxPoint as="offset" />
          </mxGeometry>
        </mxCell>
        <mxCell id="wpAan-Qs_-0TVakLURKv-17" value="Estoque" style="whiteSpace=wrap;html=1;align=center;" parent="1" vertex="1">
          <mxGeometry x="240" y="840" width="100" height="40" as="geometry" />
        </mxCell>
        <mxCell id="wpAan-Qs_-0TVakLURKv-18" value="Compra" style="shape=rhombus;perimeter=rhombusPerimeter;whiteSpace=wrap;html=1;align=center;" parent="1" vertex="1">
          <mxGeometry x="230" y="530" width="120" height="60" as="geometry" />
        </mxCell>
        <mxCell id="wpAan-Qs_-0TVakLURKv-19" value="" style="endArrow=none;html=1;rounded=0;exitX=0.5;exitY=0;exitDx=0;exitDy=0;entryX=0.5;entryY=1;entryDx=0;entryDy=0;" parent="1" source="wpAan-Qs_-0TVakLURKv-17" target="wpAan-Qs_-0TVakLURKv-18" edge="1">
          <mxGeometry relative="1" as="geometry">
            <mxPoint x="370" y="560" as="sourcePoint" />
            <mxPoint x="530" y="560" as="targetPoint" />
          </mxGeometry>
        </mxCell>
        <mxCell id="wpAan-Qs_-0TVakLURKv-20" value="N" style="resizable=0;html=1;align=right;verticalAlign=bottom;" parent="wpAan-Qs_-0TVakLURKv-19" connectable="0" vertex="1">
          <mxGeometry x="1" relative="1" as="geometry">
            <mxPoint x="10" y="20" as="offset" />
          </mxGeometry>
        </mxCell>
        <mxCell id="wpAan-Qs_-0TVakLURKv-24" value="" style="endArrow=none;html=1;rounded=0;exitX=0.5;exitY=1;exitDx=0;exitDy=0;" parent="1" source="wpAan-Qs_-0TVakLURKv-2" target="wpAan-Qs_-0TVakLURKv-18" edge="1">
          <mxGeometry relative="1" as="geometry">
            <mxPoint x="370" y="480" as="sourcePoint" />
            <mxPoint x="530" y="480" as="targetPoint" />
          </mxGeometry>
        </mxCell>
        <mxCell id="wpAan-Qs_-0TVakLURKv-25" value="M" style="resizable=0;html=1;align=right;verticalAlign=bottom;" parent="wpAan-Qs_-0TVakLURKv-24" connectable="0" vertex="1">
          <mxGeometry x="1" relative="1" as="geometry">
            <mxPoint x="10" as="offset" />
          </mxGeometry>
        </mxCell>
        <mxCell id="wpAan-Qs_-0TVakLURKv-26" value="Possui" style="shape=rhombus;perimeter=rhombusPerimeter;whiteSpace=wrap;html=1;align=center;" parent="1" vertex="1">
          <mxGeometry x="230" y="920" width="120" height="60" as="geometry" />
        </mxCell>
        <mxCell id="wpAan-Qs_-0TVakLURKv-27" value="" style="endArrow=none;html=1;rounded=0;exitX=0.5;exitY=0;exitDx=0;exitDy=0;entryX=0.5;entryY=1;entryDx=0;entryDy=0;" parent="1" source="wpAan-Qs_-0TVakLURKv-7" target="wpAan-Qs_-0TVakLURKv-26" edge="1">
          <mxGeometry relative="1" as="geometry">
            <mxPoint x="370" y="960" as="sourcePoint" />
            <mxPoint x="530" y="960" as="targetPoint" />
          </mxGeometry>
        </mxCell>
        <mxCell id="wpAan-Qs_-0TVakLURKv-28" value="1" style="resizable=0;html=1;align=right;verticalAlign=bottom;" parent="wpAan-Qs_-0TVakLURKv-27" connectable="0" vertex="1">
          <mxGeometry x="1" relative="1" as="geometry">
            <mxPoint x="10" y="20" as="offset" />
          </mxGeometry>
        </mxCell>
        <mxCell id="wpAan-Qs_-0TVakLURKv-29" value="" style="endArrow=none;html=1;rounded=0;exitX=0.5;exitY=1;exitDx=0;exitDy=0;entryX=0.5;entryY=0;entryDx=0;entryDy=0;" parent="1" target="wpAan-Qs_-0TVakLURKv-26" edge="1">
          <mxGeometry relative="1" as="geometry">
            <mxPoint x="289.71000000000004" y="880" as="sourcePoint" />
            <mxPoint x="289.71000000000004" y="910" as="targetPoint" />
          </mxGeometry>
        </mxCell>
        <mxCell id="wpAan-Qs_-0TVakLURKv-30" value="N" style="resizable=0;html=1;align=right;verticalAlign=bottom;" parent="wpAan-Qs_-0TVakLURKv-29" connectable="0" vertex="1">
          <mxGeometry x="1" relative="1" as="geometry">
            <mxPoint x="10" as="offset" />
          </mxGeometry>
        </mxCell>
        <mxCell id="wpAan-Qs_-0TVakLURKv-31" value="Atribuído" style="shape=rhombus;perimeter=rhombusPerimeter;whiteSpace=wrap;html=1;align=center;" parent="1" vertex="1">
          <mxGeometry x="510" y="280" width="120" height="60" as="geometry" />
        </mxCell>
        <mxCell id="wpAan-Qs_-0TVakLURKv-32" value="" style="endArrow=none;html=1;rounded=0;exitX=0.75;exitY=0;exitDx=0;exitDy=0;entryX=0;entryY=0.5;entryDx=0;entryDy=0;edgeStyle=orthogonalEdgeStyle;" parent="1" source="wpAan-Qs_-0TVakLURKv-3" target="wpAan-Qs_-0TVakLURKv-31" edge="1">
          <mxGeometry relative="1" as="geometry">
            <mxPoint x="490" y="410" as="sourcePoint" />
            <mxPoint x="650" y="410" as="targetPoint" />
          </mxGeometry>
        </mxCell>
        <mxCell id="wpAan-Qs_-0TVakLURKv-33" value="N" style="resizable=0;html=1;align=right;verticalAlign=bottom;" parent="wpAan-Qs_-0TVakLURKv-32" connectable="0" vertex="1">
          <mxGeometry x="1" relative="1" as="geometry" />
        </mxCell>
        <mxCell id="wpAan-Qs_-0TVakLURKv-34" value="" style="endArrow=none;html=1;rounded=0;exitX=0.5;exitY=1;exitDx=0;exitDy=0;entryX=0.5;entryY=0;entryDx=0;entryDy=0;" parent="1" source="wpAan-Qs_-0TVakLURKv-4" target="wpAan-Qs_-0TVakLURKv-31" edge="1">
          <mxGeometry relative="1" as="geometry">
            <mxPoint x="490" y="410" as="sourcePoint" />
            <mxPoint x="650" y="410" as="targetPoint" />
          </mxGeometry>
        </mxCell>
        <mxCell id="wpAan-Qs_-0TVakLURKv-35" value="1" style="resizable=0;html=1;align=right;verticalAlign=bottom;" parent="wpAan-Qs_-0TVakLURKv-34" connectable="0" vertex="1">
          <mxGeometry x="1" relative="1" as="geometry" />
        </mxCell>
        <mxCell id="wpAan-Qs_-0TVakLURKv-36" value="Reside" style="shape=rhombus;perimeter=rhombusPerimeter;whiteSpace=wrap;html=1;align=center;" parent="1" vertex="1">
          <mxGeometry x="140" y="280" width="120" height="60" as="geometry" />
        </mxCell>
        <mxCell id="wpAan-Qs_-0TVakLURKv-37" value="" style="endArrow=none;html=1;rounded=0;exitX=0;exitY=0.5;exitDx=0;exitDy=0;edgeStyle=orthogonalEdgeStyle;" parent="1" source="wpAan-Qs_-0TVakLURKv-5" target="wpAan-Qs_-0TVakLURKv-36" edge="1">
          <mxGeometry relative="1" as="geometry">
            <mxPoint x="290" y="340" as="sourcePoint" />
            <mxPoint x="230.00000000000023" y="280" as="targetPoint" />
          </mxGeometry>
        </mxCell>
        <mxCell id="wpAan-Qs_-0TVakLURKv-38" value="1" style="resizable=0;html=1;align=right;verticalAlign=bottom;" parent="wpAan-Qs_-0TVakLURKv-37" connectable="0" vertex="1">
          <mxGeometry x="1" relative="1" as="geometry" />
        </mxCell>
        <mxCell id="wpAan-Qs_-0TVakLURKv-39" value="" style="endArrow=none;html=1;rounded=0;exitX=0;exitY=0.5;exitDx=0;exitDy=0;entryX=1;entryY=0.5;entryDx=0;entryDy=0;" parent="1" source="wpAan-Qs_-0TVakLURKv-1" target="wpAan-Qs_-0TVakLURKv-36" edge="1">
          <mxGeometry relative="1" as="geometry">
            <mxPoint x="290" y="340" as="sourcePoint" />
            <mxPoint x="270" y="330" as="targetPoint" />
          </mxGeometry>
        </mxCell>
        <mxCell id="wpAan-Qs_-0TVakLURKv-40" value="N" style="resizable=0;html=1;align=right;verticalAlign=bottom;" parent="wpAan-Qs_-0TVakLURKv-39" connectable="0" vertex="1">
          <mxGeometry x="1" relative="1" as="geometry">
            <mxPoint x="7" as="offset" />
          </mxGeometry>
        </mxCell>
        <mxCell id="wpAan-Qs_-0TVakLURKv-45" value="Nasceu" style="shape=rhombus;perimeter=rhombusPerimeter;whiteSpace=wrap;html=1;align=center;" parent="1" vertex="1">
          <mxGeometry x="300" y="190" width="120" height="60" as="geometry" />
        </mxCell>
        <mxCell id="wpAan-Qs_-0TVakLURKv-46" value="" style="endArrow=none;html=1;rounded=0;exitX=0.5;exitY=1;exitDx=0;exitDy=0;entryX=0.5;entryY=0;entryDx=0;entryDy=0;" parent="1" source="wpAan-Qs_-0TVakLURKv-5" target="wpAan-Qs_-0TVakLURKv-45" edge="1">
          <mxGeometry relative="1" as="geometry">
            <mxPoint x="300" y="230" as="sourcePoint" />
            <mxPoint x="460" y="230" as="targetPoint" />
          </mxGeometry>
        </mxCell>
        <mxCell id="wpAan-Qs_-0TVakLURKv-47" value="1" style="resizable=0;html=1;align=right;verticalAlign=bottom;" parent="wpAan-Qs_-0TVakLURKv-46" connectable="0" vertex="1">
          <mxGeometry x="1" relative="1" as="geometry" />
        </mxCell>
        <mxCell id="wpAan-Qs_-0TVakLURKv-48" value="" style="endArrow=none;html=1;rounded=0;exitX=0.5;exitY=0;exitDx=0;exitDy=0;entryX=0.5;entryY=1;entryDx=0;entryDy=0;" parent="1" source="wpAan-Qs_-0TVakLURKv-1" target="wpAan-Qs_-0TVakLURKv-45" edge="1">
          <mxGeometry relative="1" as="geometry">
            <mxPoint x="300" y="230" as="sourcePoint" />
            <mxPoint x="400" y="260" as="targetPoint" />
          </mxGeometry>
        </mxCell>
        <mxCell id="wpAan-Qs_-0TVakLURKv-49" value="N" style="resizable=0;html=1;align=right;verticalAlign=bottom;" parent="wpAan-Qs_-0TVakLURKv-48" connectable="0" vertex="1">
          <mxGeometry x="1" relative="1" as="geometry">
            <mxPoint y="20" as="offset" />
          </mxGeometry>
        </mxCell>
        <mxCell id="wpAan-Qs_-0TVakLURKv-50" value="Localizada" style="shape=rhombus;perimeter=rhombusPerimeter;whiteSpace=wrap;html=1;align=center;" parent="1" vertex="1">
          <mxGeometry x="460" y="100" width="120" height="60" as="geometry" />
        </mxCell>
        <mxCell id="wpAan-Qs_-0TVakLURKv-51" value="" style="endArrow=none;html=1;rounded=0;entryX=1;entryY=0.5;entryDx=0;entryDy=0;exitX=0;exitY=0.5;exitDx=0;exitDy=0;" parent="1" source="wpAan-Qs_-0TVakLURKv-6" target="wpAan-Qs_-0TVakLURKv-50" edge="1">
          <mxGeometry relative="1" as="geometry">
            <mxPoint x="690" y="180" as="sourcePoint" />
            <mxPoint x="610" y="140" as="targetPoint" />
          </mxGeometry>
        </mxCell>
        <mxCell id="wpAan-Qs_-0TVakLURKv-52" value="1" style="resizable=0;html=1;align=right;verticalAlign=bottom;" parent="wpAan-Qs_-0TVakLURKv-51" connectable="0" vertex="1">
          <mxGeometry x="1" relative="1" as="geometry" />
        </mxCell>
        <mxCell id="wpAan-Qs_-0TVakLURKv-53" value="" style="endArrow=none;html=1;rounded=0;exitX=1;exitY=0.5;exitDx=0;exitDy=0;entryX=0;entryY=0.5;entryDx=0;entryDy=0;" parent="1" source="wpAan-Qs_-0TVakLURKv-5" target="wpAan-Qs_-0TVakLURKv-50" edge="1">
          <mxGeometry relative="1" as="geometry">
            <mxPoint x="450" y="140" as="sourcePoint" />
            <mxPoint x="610" y="140" as="targetPoint" />
          </mxGeometry>
        </mxCell>
        <mxCell id="wpAan-Qs_-0TVakLURKv-54" value="N" style="resizable=0;html=1;align=right;verticalAlign=bottom;" parent="wpAan-Qs_-0TVakLURKv-53" connectable="0" vertex="1">
          <mxGeometry x="1" relative="1" as="geometry" />
        </mxCell>
        <mxCell id="wpAan-Qs_-0TVakLURKv-55" value="Pertence" style="shape=rhombus;perimeter=rhombusPerimeter;whiteSpace=wrap;html=1;align=center;" parent="1" vertex="1">
          <mxGeometry x="380" y="830" width="120" height="60" as="geometry" />
        </mxCell>
        <mxCell id="wpAan-Qs_-0TVakLURKv-56" value="" style="endArrow=none;html=1;rounded=0;entryX=1;entryY=0.5;entryDx=0;entryDy=0;exitX=0;exitY=0.5;exitDx=0;exitDy=0;" parent="1" source="wpAan-Qs_-0TVakLURKv-8" target="wpAan-Qs_-0TVakLURKv-55" edge="1">
          <mxGeometry relative="1" as="geometry">
            <mxPoint x="430" y="810" as="sourcePoint" />
            <mxPoint x="650" y="780" as="targetPoint" />
          </mxGeometry>
        </mxCell>
        <mxCell id="wpAan-Qs_-0TVakLURKv-57" value="1" style="resizable=0;html=1;align=right;verticalAlign=bottom;" parent="wpAan-Qs_-0TVakLURKv-56" connectable="0" vertex="1">
          <mxGeometry x="1" relative="1" as="geometry" />
        </mxCell>
        <mxCell id="wpAan-Qs_-0TVakLURKv-58" value="" style="endArrow=none;html=1;rounded=0;exitX=1;exitY=0.5;exitDx=0;exitDy=0;entryX=0;entryY=0.5;entryDx=0;entryDy=0;" parent="1" source="wpAan-Qs_-0TVakLURKv-17" target="wpAan-Qs_-0TVakLURKv-55" edge="1">
          <mxGeometry relative="1" as="geometry">
            <mxPoint x="430" y="810" as="sourcePoint" />
            <mxPoint x="390" y="820" as="targetPoint" />
          </mxGeometry>
        </mxCell>
        <mxCell id="wpAan-Qs_-0TVakLURKv-59" value="N" style="resizable=0;html=1;align=right;verticalAlign=bottom;" parent="wpAan-Qs_-0TVakLURKv-58" connectable="0" vertex="1">
          <mxGeometry x="1" relative="1" as="geometry" />
        </mxCell>
        <mxCell id="wpAan-Qs_-0TVakLURKv-60" value="Cria" style="shape=rhombus;perimeter=rhombusPerimeter;whiteSpace=wrap;html=1;align=center;" parent="1" vertex="1">
          <mxGeometry x="380" y="520" width="120" height="60" as="geometry" />
        </mxCell>
        <mxCell id="wpAan-Qs_-0TVakLURKv-61" value="Cesta" style="whiteSpace=wrap;html=1;align=center;" parent="1" vertex="1">
          <mxGeometry x="530" y="530" width="100" height="40" as="geometry" />
        </mxCell>
        <mxCell id="wpAan-Qs_-0TVakLURKv-63" value="Tipifica" style="shape=rhombus;perimeter=rhombusPerimeter;whiteSpace=wrap;html=1;align=center;" parent="1" vertex="1">
          <mxGeometry x="520" y="920" width="120" height="60" as="geometry" />
        </mxCell>
        <mxCell id="wpAan-Qs_-0TVakLURKv-64" value="" style="endArrow=none;html=1;rounded=0;entryX=0.5;entryY=0;entryDx=0;entryDy=0;exitX=0.5;exitY=1;exitDx=0;exitDy=0;" parent="1" source="wpAan-Qs_-0TVakLURKv-8" target="wpAan-Qs_-0TVakLURKv-63" edge="1">
          <mxGeometry relative="1" as="geometry">
            <mxPoint x="420" y="860" as="sourcePoint" />
            <mxPoint x="580" y="860" as="targetPoint" />
          </mxGeometry>
        </mxCell>
        <mxCell id="wpAan-Qs_-0TVakLURKv-65" value="N" style="resizable=0;html=1;align=right;verticalAlign=bottom;" parent="wpAan-Qs_-0TVakLURKv-64" connectable="0" vertex="1">
          <mxGeometry x="1" relative="1" as="geometry" />
        </mxCell>
        <mxCell id="wpAan-Qs_-0TVakLURKv-66" value="" style="endArrow=none;html=1;rounded=0;entryX=0;entryY=0.5;entryDx=0;entryDy=0;exitX=1;exitY=0.5;exitDx=0;exitDy=0;" parent="1" source="wpAan-Qs_-0TVakLURKv-9" target="wpAan-Qs_-0TVakLURKv-63" edge="1">
          <mxGeometry relative="1" as="geometry">
            <mxPoint x="420" y="860" as="sourcePoint" />
            <mxPoint x="580" y="860" as="targetPoint" />
          </mxGeometry>
        </mxCell>
        <mxCell id="wpAan-Qs_-0TVakLURKv-67" value="1" style="resizable=0;html=1;align=right;verticalAlign=bottom;" parent="wpAan-Qs_-0TVakLURKv-66" connectable="0" vertex="1">
          <mxGeometry x="1" relative="1" as="geometry" />
        </mxCell>
        <mxCell id="wpAan-Qs_-0TVakLURKv-68" value="Marca" style="whiteSpace=wrap;html=1;align=center;" parent="1" vertex="1">
          <mxGeometry x="390" y="1020" width="100" height="40" as="geometry" />
        </mxCell>
        <mxCell id="wpAan-Qs_-0TVakLURKv-69" value="Produz" style="shape=rhombus;perimeter=rhombusPerimeter;whiteSpace=wrap;html=1;align=center;" parent="1" vertex="1">
          <mxGeometry x="530" y="1010" width="120" height="60" as="geometry" />
        </mxCell>
        <mxCell id="wpAan-Qs_-0TVakLURKv-70" value="" style="endArrow=none;html=1;rounded=0;entryX=0;entryY=0.5;entryDx=0;entryDy=0;exitX=1;exitY=0.5;exitDx=0;exitDy=0;" parent="1" source="wpAan-Qs_-0TVakLURKv-68" target="wpAan-Qs_-0TVakLURKv-69" edge="1">
          <mxGeometry relative="1" as="geometry">
            <mxPoint x="420" y="910" as="sourcePoint" />
            <mxPoint x="580" y="910" as="targetPoint" />
          </mxGeometry>
        </mxCell>
        <mxCell id="wpAan-Qs_-0TVakLURKv-71" value="1" style="resizable=0;html=1;align=right;verticalAlign=bottom;" parent="wpAan-Qs_-0TVakLURKv-70" connectable="0" vertex="1">
          <mxGeometry x="1" relative="1" as="geometry" />
        </mxCell>
        <mxCell id="wpAan-Qs_-0TVakLURKv-72" value="" style="endArrow=none;html=1;rounded=0;entryX=1;entryY=0.5;entryDx=0;entryDy=0;exitX=1;exitY=0.75;exitDx=0;exitDy=0;edgeStyle=orthogonalEdgeStyle;" parent="1" source="wpAan-Qs_-0TVakLURKv-8" target="wpAan-Qs_-0TVakLURKv-69" edge="1">
          <mxGeometry relative="1" as="geometry">
            <mxPoint x="420" y="910" as="sourcePoint" />
            <mxPoint x="660" y="1020" as="targetPoint" />
          </mxGeometry>
        </mxCell>
        <mxCell id="wpAan-Qs_-0TVakLURKv-73" value="N" style="resizable=0;html=1;align=right;verticalAlign=bottom;" parent="wpAan-Qs_-0TVakLURKv-72" connectable="0" vertex="1">
          <mxGeometry x="1" relative="1" as="geometry" />
        </mxCell>
        <mxCell id="wpAan-Qs_-0TVakLURKv-74" value="Agrupa" style="shape=rhombus;perimeter=rhombusPerimeter;whiteSpace=wrap;html=1;align=center;" parent="1" vertex="1">
          <mxGeometry x="670" y="560" width="120" height="60" as="geometry" />
        </mxCell>
        <mxCell id="wpAan-Qs_-0TVakLURKv-75" value="" style="endArrow=none;html=1;rounded=0;entryX=0.5;entryY=1;entryDx=0;entryDy=0;exitX=1;exitY=0.75;exitDx=0;exitDy=0;edgeStyle=orthogonalEdgeStyle;" parent="1" source="22cM4ZhE8wB5CD_mBeyH-10" target="wpAan-Qs_-0TVakLURKv-74" edge="1">
          <mxGeometry relative="1" as="geometry">
            <mxPoint x="650" y="630" as="sourcePoint" />
            <mxPoint x="810" y="489.17" as="targetPoint" />
          </mxGeometry>
        </mxCell>
        <mxCell id="wpAan-Qs_-0TVakLURKv-76" value="N" style="resizable=0;html=1;align=right;verticalAlign=bottom;" parent="wpAan-Qs_-0TVakLURKv-75" connectable="0" vertex="1">
          <mxGeometry x="1" relative="1" as="geometry">
            <mxPoint x="10" y="20" as="offset" />
          </mxGeometry>
        </mxCell>
        <mxCell id="wpAan-Qs_-0TVakLURKv-77" value="" style="endArrow=none;html=1;rounded=0;entryX=0.5;entryY=0;entryDx=0;entryDy=0;exitX=1;exitY=0.5;exitDx=0;exitDy=0;edgeStyle=orthogonalEdgeStyle;" parent="1" source="wpAan-Qs_-0TVakLURKv-61" target="wpAan-Qs_-0TVakLURKv-74" edge="1">
          <mxGeometry relative="1" as="geometry">
            <mxPoint x="540" y="560" as="sourcePoint" />
            <mxPoint x="700" y="560" as="targetPoint" />
          </mxGeometry>
        </mxCell>
        <mxCell id="wpAan-Qs_-0TVakLURKv-78" value="1" style="resizable=0;html=1;align=right;verticalAlign=bottom;" parent="wpAan-Qs_-0TVakLURKv-77" connectable="0" vertex="1">
          <mxGeometry x="1" relative="1" as="geometry">
            <mxPoint x="10" as="offset" />
          </mxGeometry>
        </mxCell>
        <mxCell id="wpAan-Qs_-0TVakLURKv-79" value="" style="endArrow=none;html=1;rounded=0;entryX=1;entryY=0.5;entryDx=0;entryDy=0;exitX=0;exitY=0.5;exitDx=0;exitDy=0;" parent="1" source="wpAan-Qs_-0TVakLURKv-61" target="wpAan-Qs_-0TVakLURKv-60" edge="1">
          <mxGeometry relative="1" as="geometry">
            <mxPoint x="360" y="500" as="sourcePoint" />
            <mxPoint x="520" y="500" as="targetPoint" />
          </mxGeometry>
        </mxCell>
        <mxCell id="wpAan-Qs_-0TVakLURKv-80" value="N" style="resizable=0;html=1;align=right;verticalAlign=bottom;" parent="wpAan-Qs_-0TVakLURKv-79" connectable="0" vertex="1">
          <mxGeometry x="1" relative="1" as="geometry" />
        </mxCell>
        <mxCell id="wpAan-Qs_-0TVakLURKv-81" value="" style="endArrow=none;html=1;rounded=0;entryX=0;entryY=0.5;entryDx=0;entryDy=0;exitX=1;exitY=0.75;exitDx=0;exitDy=0;edgeStyle=orthogonalEdgeStyle;" parent="1" source="wpAan-Qs_-0TVakLURKv-2" target="wpAan-Qs_-0TVakLURKv-60" edge="1">
          <mxGeometry relative="1" as="geometry">
            <mxPoint x="360" y="420" as="sourcePoint" />
            <mxPoint x="520" y="420" as="targetPoint" />
            <Array as="points">
              <mxPoint x="350" y="400" />
              <mxPoint x="350" y="550" />
            </Array>
          </mxGeometry>
        </mxCell>
        <mxCell id="wpAan-Qs_-0TVakLURKv-82" value="1" style="resizable=0;html=1;align=right;verticalAlign=bottom;" parent="wpAan-Qs_-0TVakLURKv-81" connectable="0" vertex="1">
          <mxGeometry x="1" relative="1" as="geometry" />
        </mxCell>
        <mxCell id="wpAan-Qs_-0TVakLURKv-83" value="Atende" style="shape=rhombus;perimeter=rhombusPerimeter;whiteSpace=wrap;html=1;align=center;" parent="1" vertex="1">
          <mxGeometry x="370" y="440" width="120" height="60" as="geometry" />
        </mxCell>
        <mxCell id="wpAan-Qs_-0TVakLURKv-84" value="" style="endArrow=none;html=1;rounded=0;entryX=0.5;entryY=0;entryDx=0;entryDy=0;" parent="1" source="wpAan-Qs_-0TVakLURKv-3" target="wpAan-Qs_-0TVakLURKv-83" edge="1">
          <mxGeometry relative="1" as="geometry">
            <mxPoint x="300" y="410" as="sourcePoint" />
            <mxPoint x="460" y="410" as="targetPoint" />
          </mxGeometry>
        </mxCell>
        <mxCell id="wpAan-Qs_-0TVakLURKv-85" value="M" style="resizable=0;html=1;align=right;verticalAlign=bottom;" parent="wpAan-Qs_-0TVakLURKv-84" connectable="0" vertex="1">
          <mxGeometry x="1" relative="1" as="geometry" />
        </mxCell>
        <mxCell id="wpAan-Qs_-0TVakLURKv-86" value="" style="endArrow=none;html=1;rounded=0;exitX=1;exitY=0.25;exitDx=0;exitDy=0;entryX=0;entryY=0.5;entryDx=0;entryDy=0;edgeStyle=orthogonalEdgeStyle;" parent="1" source="wpAan-Qs_-0TVakLURKv-2" target="wpAan-Qs_-0TVakLURKv-83" edge="1">
          <mxGeometry relative="1" as="geometry">
            <mxPoint x="300" y="410" as="sourcePoint" />
            <mxPoint x="460" y="410" as="targetPoint" />
            <Array as="points">
              <mxPoint x="360" y="380" />
              <mxPoint x="360" y="470" />
            </Array>
          </mxGeometry>
        </mxCell>
        <mxCell id="wpAan-Qs_-0TVakLURKv-87" value="N" style="resizable=0;html=1;align=right;verticalAlign=bottom;" parent="wpAan-Qs_-0TVakLURKv-86" connectable="0" vertex="1">
          <mxGeometry x="1" relative="1" as="geometry">
            <mxPoint y="20" as="offset" />
          </mxGeometry>
        </mxCell>
        <mxCell id="wpAan-Qs_-0TVakLURKv-89" value="&lt;p style=&quot;line-height: 0&quot;&gt;Projeto DRUGSTORE&lt;span style=&quot;color: rgb(51 , 51 , 51) ; text-align: justify&quot;&gt;&lt;font style=&quot;font-size: 24px&quot;&gt;®&lt;/font&gt;&lt;/span&gt;&lt;/p&gt;&lt;p&gt;&lt;span style=&quot;color: rgb(51 , 51 , 51) ; text-align: justify ; font-weight: normal&quot;&gt;&lt;font style=&quot;font-size: 24px&quot;&gt;&lt;i&gt;Modelo ER&lt;/i&gt;&lt;/font&gt;&lt;/span&gt;&lt;/p&gt;" style="text;strokeColor=none;fillColor=none;html=1;fontSize=24;fontStyle=1;verticalAlign=middle;align=center;shadow=0;glass=1;labelBackgroundColor=#ffffff;fillOpacity=100;" parent="1" vertex="1">
          <mxGeometry x="110" y="48" width="100" height="40" as="geometry" />
        </mxCell>
        <mxCell id="wpAan-Qs_-0TVakLURKv-90" value="Solicitação" style="whiteSpace=wrap;html=1;align=center;" parent="1" vertex="1">
          <mxGeometry x="530" y="450" width="100" height="40" as="geometry" />
        </mxCell>
        <mxCell id="wpAan-Qs_-0TVakLURKv-91" value="" style="endArrow=none;html=1;rounded=0;entryX=1;entryY=0.5;entryDx=0;entryDy=0;exitX=0;exitY=0.5;exitDx=0;exitDy=0;" parent="1" source="wpAan-Qs_-0TVakLURKv-90" target="wpAan-Qs_-0TVakLURKv-83" edge="1">
          <mxGeometry relative="1" as="geometry">
            <mxPoint x="490" y="590" as="sourcePoint" />
            <mxPoint x="650" y="590" as="targetPoint" />
          </mxGeometry>
        </mxCell>
        <mxCell id="wpAan-Qs_-0TVakLURKv-92" value="N" style="resizable=0;html=1;align=right;verticalAlign=bottom;" parent="wpAan-Qs_-0TVakLURKv-91" connectable="0" vertex="1">
          <mxGeometry x="1" relative="1" as="geometry">
            <mxPoint x="10" y="20" as="offset" />
          </mxGeometry>
        </mxCell>
        <mxCell id="22cM4ZhE8wB5CD_mBeyH-2" value="Status" style="whiteSpace=wrap;html=1;align=center;" vertex="1" parent="1">
          <mxGeometry x="680" y="370" width="100" height="40" as="geometry" />
        </mxCell>
        <mxCell id="22cM4ZhE8wB5CD_mBeyH-3" value="Indica Estado" style="shape=rhombus;perimeter=rhombusPerimeter;whiteSpace=wrap;html=1;align=center;" vertex="1" parent="1">
          <mxGeometry x="670" y="440" width="120" height="60" as="geometry" />
        </mxCell>
        <mxCell id="22cM4ZhE8wB5CD_mBeyH-6" value="" style="endArrow=none;html=1;rounded=0;entryX=0.5;entryY=1;entryDx=0;entryDy=0;exitX=1;exitY=0.25;exitDx=0;exitDy=0;edgeStyle=orthogonalEdgeStyle;elbow=vertical;" edge="1" parent="1" source="wpAan-Qs_-0TVakLURKv-61" target="22cM4ZhE8wB5CD_mBeyH-3">
          <mxGeometry relative="1" as="geometry">
            <mxPoint x="500" y="480" as="sourcePoint" />
            <mxPoint x="660" y="480" as="targetPoint" />
          </mxGeometry>
        </mxCell>
        <mxCell id="22cM4ZhE8wB5CD_mBeyH-7" value="N" style="resizable=0;html=1;align=right;verticalAlign=bottom;" connectable="0" vertex="1" parent="22cM4ZhE8wB5CD_mBeyH-6">
          <mxGeometry x="1" relative="1" as="geometry">
            <mxPoint x="10" y="20" as="offset" />
          </mxGeometry>
        </mxCell>
        <mxCell id="22cM4ZhE8wB5CD_mBeyH-8" value="" style="endArrow=none;html=1;rounded=0;elbow=vertical;entryX=0.5;entryY=0;entryDx=0;entryDy=0;exitX=0.5;exitY=1;exitDx=0;exitDy=0;" edge="1" parent="1" source="22cM4ZhE8wB5CD_mBeyH-2" target="22cM4ZhE8wB5CD_mBeyH-3">
          <mxGeometry relative="1" as="geometry">
            <mxPoint x="500" y="530" as="sourcePoint" />
            <mxPoint x="660" y="530" as="targetPoint" />
          </mxGeometry>
        </mxCell>
        <mxCell id="22cM4ZhE8wB5CD_mBeyH-9" value="M" style="resizable=0;html=1;align=right;verticalAlign=bottom;" connectable="0" vertex="1" parent="22cM4ZhE8wB5CD_mBeyH-8">
          <mxGeometry x="1" relative="1" as="geometry" />
        </mxCell>
        <mxCell id="22cM4ZhE8wB5CD_mBeyH-10" value="Itens" style="whiteSpace=wrap;html=1;align=center;" vertex="1" parent="1">
          <mxGeometry x="530" y="760" width="100" height="40" as="geometry" />
        </mxCell>
        <mxCell id="22cM4ZhE8wB5CD_mBeyH-11" value="Disponibiliza" style="shape=rhombus;perimeter=rhombusPerimeter;whiteSpace=wrap;html=1;align=center;" vertex="1" parent="1">
          <mxGeometry x="380" y="750" width="120" height="60" as="geometry" />
        </mxCell>
        <mxCell id="22cM4ZhE8wB5CD_mBeyH-12" value="" style="endArrow=none;html=1;rounded=0;elbow=vertical;exitX=0;exitY=0.5;exitDx=0;exitDy=0;entryX=0.958;entryY=0.497;entryDx=0;entryDy=0;entryPerimeter=0;" edge="1" parent="1" source="22cM4ZhE8wB5CD_mBeyH-10" target="22cM4ZhE8wB5CD_mBeyH-11">
          <mxGeometry relative="1" as="geometry">
            <mxPoint x="350" y="780" as="sourcePoint" />
            <mxPoint x="540" y="700" as="targetPoint" />
          </mxGeometry>
        </mxCell>
        <mxCell id="22cM4ZhE8wB5CD_mBeyH-13" value="N" style="resizable=0;html=1;align=right;verticalAlign=bottom;" connectable="0" vertex="1" parent="22cM4ZhE8wB5CD_mBeyH-12">
          <mxGeometry x="1" relative="1" as="geometry">
            <mxPoint x="15" as="offset" />
          </mxGeometry>
        </mxCell>
        <mxCell id="22cM4ZhE8wB5CD_mBeyH-14" value="" style="endArrow=none;html=1;rounded=0;elbow=vertical;exitX=0.75;exitY=0;exitDx=0;exitDy=0;edgeStyle=orthogonalEdgeStyle;entryX=0;entryY=0.5;entryDx=0;entryDy=0;" edge="1" parent="1" source="wpAan-Qs_-0TVakLURKv-17" target="22cM4ZhE8wB5CD_mBeyH-11">
          <mxGeometry relative="1" as="geometry">
            <mxPoint x="350" y="780" as="sourcePoint" />
            <mxPoint x="340" y="780" as="targetPoint" />
          </mxGeometry>
        </mxCell>
        <mxCell id="22cM4ZhE8wB5CD_mBeyH-15" value="1" style="resizable=0;html=1;align=right;verticalAlign=bottom;" connectable="0" vertex="1" parent="22cM4ZhE8wB5CD_mBeyH-14">
          <mxGeometry x="1" relative="1" as="geometry" />
        </mxCell>
        <mxCell id="22cM4ZhE8wB5CD_mBeyH-16" value="Forma de Pagamento" style="whiteSpace=wrap;html=1;align=center;" vertex="1" parent="1">
          <mxGeometry x="310" y="680" width="100" height="40" as="geometry" />
        </mxCell>
        <mxCell id="22cM4ZhE8wB5CD_mBeyH-17" value="Classifica" style="shape=rhombus;perimeter=rhombusPerimeter;whiteSpace=wrap;html=1;align=center;" vertex="1" parent="1">
          <mxGeometry x="450" y="670" width="120" height="60" as="geometry" />
        </mxCell>
        <mxCell id="22cM4ZhE8wB5CD_mBeyH-18" value="Venda" style="whiteSpace=wrap;html=1;align=center;" vertex="1" parent="1">
          <mxGeometry x="610" y="680" width="100" height="40" as="geometry" />
        </mxCell>
        <mxCell id="22cM4ZhE8wB5CD_mBeyH-19" value="" style="endArrow=none;html=1;rounded=0;elbow=vertical;entryX=0;entryY=0.5;entryDx=0;entryDy=0;exitX=1;exitY=0.5;exitDx=0;exitDy=0;" edge="1" parent="1" source="22cM4ZhE8wB5CD_mBeyH-16" target="22cM4ZhE8wB5CD_mBeyH-17">
          <mxGeometry relative="1" as="geometry">
            <mxPoint x="390" y="680" as="sourcePoint" />
            <mxPoint x="550" y="680" as="targetPoint" />
          </mxGeometry>
        </mxCell>
        <mxCell id="22cM4ZhE8wB5CD_mBeyH-20" value="1" style="resizable=0;html=1;align=right;verticalAlign=bottom;" connectable="0" vertex="1" parent="22cM4ZhE8wB5CD_mBeyH-19">
          <mxGeometry x="1" relative="1" as="geometry" />
        </mxCell>
        <mxCell id="22cM4ZhE8wB5CD_mBeyH-21" value="" style="endArrow=none;html=1;rounded=0;elbow=vertical;entryX=1;entryY=0.5;entryDx=0;entryDy=0;exitX=0;exitY=0.5;exitDx=0;exitDy=0;" edge="1" parent="1" source="22cM4ZhE8wB5CD_mBeyH-18" target="22cM4ZhE8wB5CD_mBeyH-17">
          <mxGeometry relative="1" as="geometry">
            <mxPoint x="390" y="680" as="sourcePoint" />
            <mxPoint x="550" y="680" as="targetPoint" />
          </mxGeometry>
        </mxCell>
        <mxCell id="22cM4ZhE8wB5CD_mBeyH-22" value="N" style="resizable=0;html=1;align=right;verticalAlign=bottom;" connectable="0" vertex="1" parent="22cM4ZhE8wB5CD_mBeyH-21">
          <mxGeometry x="1" relative="1" as="geometry" />
        </mxCell>
        <mxCell id="22cM4ZhE8wB5CD_mBeyH-23" value="Concretiza" style="shape=rhombus;perimeter=rhombusPerimeter;whiteSpace=wrap;html=1;align=center;" vertex="1" parent="1">
          <mxGeometry x="520" y="590" width="120" height="60" as="geometry" />
        </mxCell>
        <mxCell id="22cM4ZhE8wB5CD_mBeyH-24" value="" style="endArrow=none;html=1;rounded=0;elbow=vertical;entryX=1;entryY=0.5;entryDx=0;entryDy=0;exitX=0.5;exitY=0;exitDx=0;exitDy=0;edgeStyle=orthogonalEdgeStyle;" edge="1" parent="1" source="22cM4ZhE8wB5CD_mBeyH-18" target="22cM4ZhE8wB5CD_mBeyH-23">
          <mxGeometry relative="1" as="geometry">
            <mxPoint x="550" y="680" as="sourcePoint" />
            <mxPoint x="710" y="680" as="targetPoint" />
          </mxGeometry>
        </mxCell>
        <mxCell id="22cM4ZhE8wB5CD_mBeyH-25" value="1" style="resizable=0;html=1;align=right;verticalAlign=bottom;" connectable="0" vertex="1" parent="22cM4ZhE8wB5CD_mBeyH-24">
          <mxGeometry x="1" relative="1" as="geometry" />
        </mxCell>
        <mxCell id="22cM4ZhE8wB5CD_mBeyH-26" value="" style="endArrow=none;html=1;rounded=0;elbow=vertical;entryX=0.5;entryY=0;entryDx=0;entryDy=0;exitX=0.5;exitY=1;exitDx=0;exitDy=0;" edge="1" parent="1" source="wpAan-Qs_-0TVakLURKv-61" target="22cM4ZhE8wB5CD_mBeyH-23">
          <mxGeometry relative="1" as="geometry">
            <mxPoint x="550" y="680" as="sourcePoint" />
            <mxPoint x="710" y="680" as="targetPoint" />
          </mxGeometry>
        </mxCell>
        <mxCell id="22cM4ZhE8wB5CD_mBeyH-27" value="1" style="resizable=0;html=1;align=right;verticalAlign=bottom;" connectable="0" vertex="1" parent="22cM4ZhE8wB5CD_mBeyH-26">
          <mxGeometry x="1" relative="1" as="geometry" />
        </mxCell>
      </root>
    </mxGraphModel>
  </diagram>
</mxfile>
